Coordinates
version=1
nRows=9
nColumns=24
inDegrees=yes

Units are S.I. units (second, meters, Newtons, ...)
Angles are in degrees.

endheader
time	pelvis_tilt	pelvis_list	pelvis_rotation	pelvis_tx	pelvis_ty	pelvis_tz	hip_flexion_r	hip_adduction_r	hip_rotation_r	knee_angle_r	ankle_angle_r	subtalar_angle_r	mtp_angle_r	hip_flexion_l	hip_adduction_l	hip_rotation_l	knee_angle_l	ankle_angle_l	subtalar_angle_l	mtp_angle_l	lumbar_extension	lumbar_bending	lumbar_rotation
      2.95500000	    -12.44322604	      9.54332065	     -4.71435772	     -2.34147700	     -0.03953663	      0.48932403	     17.48007477	     -9.64625546	      5.64350580	    -57.93417679	    -10.02963152	      5.43228268	     21.06208290	     31.56929299	     13.37115509	      3.97052724	    -26.05028572	     -1.91508484	     -7.70492691	     -2.24996449	      9.00233820	    -10.54346822	     11.24553716
      2.96000000	    -12.41104234	      9.51000565	     -4.64294889	     -2.33473048	     -0.03839673	      0.48895495	     18.46411625	     -9.65980373	      5.58038566	    -58.62773474	     -9.70366764	      5.20561597	     21.18431116	     30.87867366	     13.46702648	      4.17902346	    -25.70441036	     -1.66124253	     -7.78388474	     -2.23453048	      8.89413722	    -10.48773489	     11.00411980
      2.96500000	    -12.40732516	      9.46596723	     -4.54813185	     -2.32801824	     -0.03729202	      0.48853383	     19.46468366	     -9.66480384	      5.51061897	    -59.24806680	     -9.30238525	      5.11031386	     21.34679172	     30.21424210	     13.56341827	      4.42839735	    -25.35588939	     -1.42992205	     -7.88578061	     -2.25567112	      8.81060480	    -10.41626159	     10.74193400
      2.97000000	    -12.40684222	      9.40703496	     -4.44592658	     -2.32132571	     -0.03617557	      0.48808432	     20.45044065	     -9.65303394	      5.43926954	    -59.78304992	     -8.86402630	      5.08253456	     21.53117527	     29.54069249	     13.65218125	      4.72228466	    -24.99180201	     -1.22613004	     -8.02476752	     -2.33129352	      8.73002062	    -10.32625985	     10.47290962
      2.97500000	    -12.39299399	      9.33537176	     -4.33895014	     -2.31463673	     -0.03502268	      0.48761552	     21.40007217	     -9.62605692	      5.36413105	    -60.22790968	     -8.42112643	      5.06576117	     21.71851887	     28.83643821	     13.73217971	      5.04203890	    -24.60401164	     -1.03873705	     -8.18065012	     -2.44768029	      8.63502344	    -10.21984526	     10.20260580
      2.98000000	    -12.36182498	      9.24482904	     -4.21185361	     -2.30799047	     -0.03384668	      0.48709957	     22.30658721	     -9.58797516	      5.26324119	    -60.58659904	     -7.94922106	      5.07594713	     21.93225945	     28.11008066	     13.80747595	      5.38585414	    -24.21614305	     -0.88749712	     -8.39215650	     -2.66275830	      8.51038600	    -10.09882793	      9.87215198
      2.98500000	    -12.31157596	      9.14837764	     -4.08460323	     -2.30128196	     -0.03261830	      0.48659266	     23.16513685	     -9.54164842	      5.15518538	    -60.85030041	     -7.52274870	      5.04221860	     22.11923623	     27.32958507	     13.87023759	      5.75177204	    -23.77816085	     -0.71432829	     -8.55319420	     -2.86905189	      8.38054765	     -9.97146932	      9.57757036
      2.99000000	    -12.24781642	      9.03587344	     -3.94901034	     -2.29456491	     -0.03136187	      0.48607262	     23.98277654	     -9.47939495	      5.03263760	    -61.02686879	     -7.11856736	      4.98277307	     22.28148065	     26.51674828	     13.91363465	      6.12660580	    -23.31287438	     -0.54383557	     -8.69578145	     -3.07431416	      8.23756603	     -9.82705920	      9.27699570
      2.99500000	    -12.17131198	      8.91113073	     -3.80640638	     -2.28783755	     -0.03008453	      0.48554935	     24.76105720	     -9.40550039	      4.89483464	    -61.11892036	     -6.73960931	      4.88791988	     22.40873019	     25.67226007	     13.93802366	      6.50421049	    -22.81707554	     -0.37881462	     -8.81528047	     -3.26680894	      8.08443569	     -9.67275368	      8.97155076
